<?xml version="1.0" encoding="UTF-8" standalone="no"?>
<!-- Created with Inkscape (http://www.inkscape.org/) -->
<svg
   xmlns:svg="http://www.w3.org/2000/svg"
   xmlns="http://www.w3.org/2000/svg"
   version="1.0"
   width="240"
   height="92">
  <path
     d="M 0,81.18 L 17.13,81.18 L 17.13,57.31 L 0,57.31 L 0,81.18 z"
     id="path3219"
     style="fill:#00b0e6;fill-opacity:1;fill-rule:nonzero;stroke:none" />
  <path
     d="M 34.25,78.23 L 51.38,78.23 L 51.38,57.31 L 34.25,57.31 L 34.25,78.23 z"
     id="path3221"
     style="fill:#004294;fill-opacity:1;fill-rule:nonzero;stroke:none" />
  <path
     d="M 51.38,82.67 L 68.5,82.67 L 68.5,57.31 L 51.38,57.31 L 51.38,82.67 z"
     id="path3223"
     style="fill:#611e7f;fill-opacity:1;fill-rule:nonzero;stroke:none" />
  <path
     d="M 51.38,57.31 L 34.24,57.31 L 42.77,48.75 L 58.14,48.75"
     id="path3225"
     style="fill:#8c97c7;fill-opacity:1;fill-rule:nonzero;stroke:none" />
  <path
     d="M 68.5,90.57 L 85.63,90.57 L 85.63,57.31 L 68.5,57.31 L 68.5,90.57 z"
     id="path3227"
     style="fill:#911768;fill-opacity:1;fill-rule:nonzero;stroke:none" />
  <path
     d="M 85.63,86.99 L 102.75,86.99 L 102.75,57.31 L 85.63,57.31 L 85.63,86.99 z"
     id="path3229"
     style="fill:#bd054f;fill-opacity:1;fill-rule:nonzero;stroke:none" />
  <path
     d="M 102.75,80.69 L 119.88,80.69 L 119.88,57.31 L 102.75,57.31 L 102.75,80.69 z"
     id="path3231"
     style="fill:#e10023;fill-opacity:1;fill-rule:nonzero;stroke:none" />
  <path
     d="M 119.88,87.6 L 137,87.6 L 137,57.31 L 119.88,57.31 L 119.88,87.6 z"
     id="path3233"
     style="fill:#e85c0c;fill-opacity:1;fill-rule:nonzero;stroke:none" />
  <path
     d="M 188.37,73.28 L 205.5,73.28 L 205.5,57.31 L 188.37,57.31 L 188.37,73.28 z"
     id="path3235"
     style="fill:#97bd0c;fill-opacity:1;fill-rule:nonzero;stroke:none" />
  <path
     d="M 205.5,81.68 L 222.63,81.68 L 222.63,57.31 L 205.5,57.31 L 205.5,81.68 z"
     id="path3237"
     style="fill:#008f35;fill-opacity:1;fill-rule:nonzero;stroke:none" />
  <path
     d="M 222.63,88.1 L 239.75,88.1 L 239.75,57.31 L 222.63,57.31 L 222.63,88.1 z"
     id="path3239"
     style="fill:#007a33;fill-opacity:1;fill-rule:nonzero;stroke:none" />
  <path
     d="M 137,79.2 L 154.13,79.2 L 154.13,57.31 L 137,57.31 L 137,79.2 z"
     id="path3241"
     style="fill:#fac200;fill-opacity:1;fill-rule:nonzero;stroke:none" />
  <path
     d="M 154.13,84.64 L 171.25,84.64 L 171.25,57.31 L 154.13,57.31 L 154.13,84.64 z"
     id="path3243"
     style="fill:#ffe300;fill-opacity:1;fill-rule:nonzero;stroke:none" />
  <path
     d="M 171.25,76.73 L 188.37,76.73 L 188.37,57.31 L 171.25,57.31 L 171.25,76.73 z"
     id="path3245"
     style="fill:#d4d400;fill-opacity:1;fill-rule:nonzero;stroke:none" />
  <path
     d="M 135.09,48.75 L 137,57.31 L 119.88,57.31 L 119.88,48.75"
     id="path3247"
     style="fill:#f5b382;fill-opacity:1;fill-rule:nonzero;stroke:none" />
  <path
     d="M 181.43,48.75 L 188.37,57.31 L 171.24,57.31 L 165.85,48.75"
     id="path3249"
     style="fill:#ebe899;fill-opacity:1;fill-rule:nonzero;stroke:none" />
  <path
     d="M 205.5,57.31 L 188.37,57.31 L 181.43,48.75 L 196.82,48.75"
     id="path3251"
     style="fill:#cfde99;fill-opacity:1;fill-rule:nonzero;stroke:none" />
  <path
     d="M 222.62,57.31 L 205.5,57.31 L 196.82,48.75 L 212.2,48.75"
     id="path3253"
     style="fill:#8fc794;fill-opacity:1;fill-rule:nonzero;stroke:none" />
  <path
     d="M 239.75,57.31 L 222.62,57.31 L 212.2,48.75 L 227.75,48.75"
     id="path3255"
     style="fill:#8fb58f;fill-opacity:1;fill-rule:nonzero;stroke:none" />
  <path
     d="M 68.5,57.31 L 51.38,57.31 L 58.14,48.75 L 73.54,48.75"
     id="path3257"
     style="fill:#ab8cba;fill-opacity:1;fill-rule:nonzero;stroke:none" />
  <path
     d="M 85.63,57.31 L 68.5,57.31 L 73.54,48.75 L 88.93,48.75"
     id="path3259"
     style="fill:#c591ae;fill-opacity:1;fill-rule:nonzero;stroke:none" />
  <path
     d="M 102.74,57.31 L 85.62,57.31 L 88.93,48.75 L 104.32,48.75"
     id="path3261"
     style="fill:#dc979e;fill-opacity:1;fill-rule:nonzero;stroke:none" />
  <path
     d="M 119.88,48.75 L 104.32,48.75 L 102.75,57.31 L 119.88,57.31"
     id="path3263"
     style="fill:#f0997f;fill-opacity:1;fill-rule:nonzero;stroke:none" />
  <path
     d="M 17.13,57.31 L 0,57.31 L 11.98,48.75 L 27.38,48.75"
     id="path3265"
     style="fill:#a1d9f3;fill-opacity:1;fill-rule:nonzero;stroke:none" />
  <path
     d="M 42.77,48.75 L 34.25,57.31 L 17.13,57.31 L 27.38,48.75"
     id="path3267"
     style="fill:#87bfe3;fill-opacity:1;fill-rule:nonzero;stroke:none" />
  <path
     d="M 135.09,48.75 L 137,57.31 L 154.13,57.31 L 150.48,48.75"
     id="path3269"
     style="fill:#ffe194;fill-opacity:1;fill-rule:nonzero;stroke:none" />
  <path
     d="M 165.85,48.75 L 150.48,48.75 L 154.13,57.31 L 171.24,57.31"
     id="path3271"
     style="fill:#fff099;fill-opacity:1;fill-rule:nonzero;stroke:none" />
  <path
     d="M 17.13,91.55 L 34.25,91.55 L 34.25,57.31 L 17.13,57.31 L 17.13,91.55 z"
     id="path3273"
     style="fill:#0085ca;fill-opacity:1;fill-rule:nonzero;stroke:none" />
  <path
     d="M 225.58,18.74 L 225.58,14.97 C 222.88,14.97 220.19,16.24 218.23,18.79 L 218.23,15.36 L 214.55,15.36 L 214.55,35.97 L 218.43,35.97 L 218.43,21.88 C 219.84,19.82 222.59,18.74 225.58,18.74 M 210.3,25.66 C 210.3,19.78 206.19,14.97 199.92,14.97 C 193.65,14.97 189.49,19.78 189.49,25.66 C 189.49,31.55 193.65,36.36 199.92,36.36 C 206.19,36.36 210.3,31.55 210.3,25.66 M 206.48,25.66 C 206.48,30.17 203.84,33.22 199.92,33.22 C 195.95,33.22 193.32,30.17 193.32,25.66 C 193.32,21.15 195.95,18.1 199.92,18.1 C 203.84,18.1 206.48,21.15 206.48,25.66 M 181.22,35.97 L 185.09,35.97 L 185.09,-5.6843e-14 L 181.22,-5.6843e-14 L 181.22,35.97 z M 176.82,25.66 C 176.82,19.78 172.7,14.97 166.44,14.97 C 160.18,14.97 156,19.78 156,25.66 C 156,31.55 160.18,36.36 166.44,36.36 C 172.7,36.36 176.82,31.55 176.82,25.66 M 173,25.66 C 173,30.17 170.35,33.22 166.44,33.22 C 162.47,33.22 159.83,30.17 159.83,25.66 C 159.83,21.15 162.47,18.1 166.44,18.1 C 170.35,18.1 173,21.15 173,25.66 M 138.78,25.76 C 138.78,21.05 141.82,18.3 145.83,18.3 C 147.94,18.3 149.94,19.04 151.6,20.02 L 153.17,17.07 C 151.3,15.9 148.72,14.97 146.17,14.97 C 139.65,14.97 135.07,19.82 135.07,25.76 C 135.07,31.7 139.65,36.36 146.17,36.36 C 148.72,36.36 151.3,35.43 153.17,34.25 L 151.85,31.3 C 150.18,32.28 148.18,33.03 146.08,33.03 C 142.29,33.03 138.78,30.22 138.78,25.76 M 130.65,8.24 C 130.65,6.87 129.57,5.74 128.2,5.74 C 126.83,5.74 125.75,6.87 125.75,8.24 C 125.75,9.57 126.83,10.7 128.2,10.7 C 129.57,10.7 130.65,9.57 130.65,8.24 M 115.87,35.97 L 119.73,35.97 L 119.73,21.98 C 119.73,17.86 117.58,14.97 112.83,14.97 C 110.09,14.97 107.39,16.34 105.24,18.5 L 105.24,15.36 L 101.58,15.36 L 101.58,35.97 L 105.44,35.97 L 105.44,21.54 C 107,19.82 109.4,18.2 111.7,18.2 C 114.69,18.2 115.87,19.82 115.87,23.02 L 115.87,35.97 z M 92.42,35.97 L 96.29,35.97 L 96.29,21.98 C 96.29,17.86 93.84,14.97 89.08,14.97 C 86.39,14.97 83.85,16.24 81.69,18.46 L 81.69,-5.6843e-14 L 77.83,-5.6843e-14 L 77.83,35.97 L 81.69,35.97 L 81.69,21.54 C 83.22,19.82 85.8,18.2 88.1,18.2 C 91.04,18.2 92.42,19.82 92.42,23.02 L 92.42,35.97 z M 58.99,25.76 C 58.99,21.05 62.02,18.3 66.03,18.3 C 68.14,18.3 70.15,19.04 71.8,20.02 L 73.38,17.07 C 71.52,15.9 68.92,14.97 66.38,14.97 C 59.87,14.97 55.27,19.82 55.27,25.76 C 55.27,31.7 59.87,36.36 66.38,36.36 C 68.92,36.36 71.52,35.43 73.38,34.25 L 72.05,31.3 C 70.38,32.28 68.38,33.03 66.28,33.03 C 62.5,33.03 58.99,30.22 58.99,25.76 M 51.43,26.84 C 51.58,26.11 51.58,25.57 51.58,24.88 C 51.58,19.29 48.39,14.97 42.57,14.97 C 36.2,14.97 32.58,20.12 32.58,25.76 C 32.58,31.7 36.3,36.36 43.69,36.36 C 45.6,36.36 48.05,35.87 50.4,35.18 L 49.72,31.89 C 47.8,32.53 45.75,33.03 44.03,33.03 C 38.75,33.03 36.79,30.37 36.35,26.84 L 51.43,26.84 z M 48,23.9 L 36.49,23.9 C 36.94,20.37 38.99,18.2 42.33,18.2 C 45.95,18.2 47.77,20.71 48,23.9 M 23.32,18.69 L 29.39,18.69 L 29.39,15.36 L 23.32,15.36 L 23.32,8.63 L 19.55,11.43 L 19.55,15.02 L 16.27,18.2 L 16.27,18.69 L 19.55,18.69 L 19.55,29.89 C 19.55,34.4 21.55,36.36 25.28,36.36 C 26.35,36.36 27.43,36.21 28.65,35.97 L 28.25,32.83 C 27.58,32.93 27.14,32.98 26.55,32.98 C 24.39,32.98 23.32,32.19 23.32,30.28 L 23.32,18.69 z M 130.12,15.36 L 126.24,15.36 L 126.24,35.97 L 130.12,35.97 L 130.12,15.36 z"
     id="path3275"
     style="fill:#7a8287;fill-opacity:1;fill-rule:nonzero;stroke:none" />
</svg>
